<?xml version="1.0" encoding="UTF-8"?>
<svg version="1.1" xmlns="http://www.w3.org/2000/svg" width="48" height="48">
<path d="M0 0 C0.2680082 6.19396731 -0.13779189 12.2311328 -0.875 18.375 C-0.95347168 19.06464844 -1.03194336 19.75429688 -1.11279297 20.46484375 C-1.99702452 27.40292162 -1.99702452 27.40292162 -4 30 C-6.4090026 31.60504121 -8.70253856 32.97520498 -11.25 34.3125 C-11.90613281 34.68439453 -12.56226562 35.05628906 -13.23828125 35.43945312 C-16.39010103 37.12188575 -18.40996072 38.0114054 -22.03125 37.94140625 C-28.33603052 35.94212716 -33.85742968 33.14317763 -39 29 C-40.8036292 25.30710935 -40.97019205 22.06580381 -41 18 C-41.19145093 16.62254789 -41.39814451 15.24706573 -41.625 13.875 C-42.04261085 9.55968783 -42.09021089 5.33012288 -42 1 C-25.5481404 -6.66197717 -16.81220034 -6.00277509 0 0 Z " fill="#DC3005" transform="translate(45,8)"/>
<path d="M0 0 C6.95776959 1.36874156 13.38603107 3.4533129 20 6 C20.14149509 9.34085625 20.08182111 12.65760782 20 16 C20.01546875 17.22847656 20.0309375 18.45695312 20.046875 19.72265625 C19.62238449 29.36052037 19.62238449 29.36052037 16.56347656 32.45166016 C12.58416674 35.38876979 7.0395317 39 2 39 C2 34.05 2 29.1 2 24 C3.98 24 5.96 24 8 24 C8.66 25.98 9.32 27.96 10 30 C11.32 29.67 12.64 29.34 14 29 C13.66677734 28.28344238 13.33355469 27.56688477 12.99023438 26.82861328 C11.48956607 23.59587992 9.99471548 20.36048978 8.5 17.125 C7.71302734 15.43310547 7.71302734 15.43310547 6.91015625 13.70703125 C6.41386719 12.63066406 5.91757812 11.55429688 5.40625 10.4453125 C4.71499023 8.95281982 4.71499023 8.95281982 4.00976562 7.43017578 C3 5 3 5 3 3 C2.34 2.67 1.68 2.34 1 2 C0.67 1.34 0.34 0.68 0 0 Z " fill="#B72020" transform="translate(22,4)"/>
<path d="M0 0 C0.2680082 6.19396731 -0.13779189 12.2311328 -0.875 18.375 C-0.95347168 19.06464844 -1.03194336 19.75429688 -1.11279297 20.46484375 C-1.99702452 27.40292162 -1.99702452 27.40292162 -4 30 C-6.4090026 31.60504121 -8.70253856 32.97520498 -11.25 34.3125 C-11.90613281 34.68439453 -12.56226562 35.05628906 -13.23828125 35.43945312 C-16.39010103 37.12188575 -18.40996072 38.0114054 -22.03125 37.94140625 C-28.33603052 35.94212716 -33.85742968 33.14317763 -39 29 C-40.8036292 25.30710935 -40.97019205 22.06580381 -41 18 C-41.19145093 16.62254789 -41.39814451 15.24706573 -41.625 13.875 C-42.04261085 9.55968783 -42.09021089 5.33012288 -42 1 C-25.5481404 -6.66197717 -16.81220034 -6.00277509 0 0 Z M-26.79296875 -2.6875 C-27.50517578 -2.41679688 -28.21738281 -2.14609375 -28.95117188 -1.8671875 C-30.0581543 -1.43792969 -30.0581543 -1.43792969 -31.1875 -1 C-31.93708984 -0.71382813 -32.68667969 -0.42765625 -33.45898438 -0.1328125 C-35.30768743 0.57369822 -37.15407225 1.28626959 -39 2 C-39.11759559 5.3422597 -39.08185901 8.65605936 -39 12 C-39.01546875 13.22847656 -39.0309375 14.45695312 -39.046875 15.72265625 C-38.89103347 22.62190107 -38.89103347 22.62190107 -35.62792969 28.46777344 C-31.08368431 32.027033 -25.82520465 35.13693594 -19.9375 34.8515625 C-14.2034271 33.18929137 -9.36235913 31.17183441 -5 27 C-3.23600633 22.00767175 -3.03283685 17.2648412 -3 12 C-2.95746094 10.41832031 -2.95746094 10.41832031 -2.9140625 8.8046875 C-2.88162691 6.52770876 -2.92057095 4.27477628 -3 2 C-5.76886123 0.99422987 -8.53984104 -0.00480147 -11.3125 -1 C-12.09818359 -1.28617187 -12.88386719 -1.57234375 -13.69335938 -1.8671875 C-14.45068359 -2.13789062 -15.20800781 -2.40859375 -15.98828125 -2.6875 C-16.68477783 -2.93886719 -17.38127441 -3.19023438 -18.09887695 -3.44921875 C-21.39785222 -4.40497683 -23.69243992 -3.87810307 -26.79296875 -2.6875 Z " fill="#BDB3B2" transform="translate(45,8)"/>
<path d="M0 0 C0.66 0 1.32 0 2 0 C3.71139745 3.68337336 5.42033077 7.36787845 7.12695312 11.0534668 C7.70830148 12.30801524 8.2903313 13.56224813 8.87304688 14.81616211 C9.70880872 16.61489784 10.5419461 18.41485228 11.375 20.21484375 C11.87773438 21.29886475 12.38046875 22.38288574 12.8984375 23.49975586 C14 26 14 26 14 27 C12.35 27 10.7 27 9 27 C8.34 25.35 7.68 23.7 7 22 C3.04 22 -0.92 22 -5 22 C-5.99 24.475 -5.99 24.475 -7 27 C-8.65 27 -10.3 27 -12 27 C-8.06781048 17.96842926 -4.11487907 8.95033604 0 0 Z " fill="#BDB4B3" transform="translate(23,7)"/>
<path d="M0 0 C0.33 0 0.66 0 1 0 C1.3152595 5.98993047 0.68219822 9.63560356 -2 15 C-1.01 15.33 -0.02 15.66 1 16 C1 17.32 1 18.64 1 20 C-0.423125 20.0928125 -0.423125 20.0928125 -1.875 20.1875 C-2.90625 20.455625 -3.9375 20.72375 -5 21 C-6.45291273 23.46255685 -6.45291273 23.46255685 -7 26 C-8.65 26 -10.3 26 -12 26 C-8.21887122 17.21732047 -4.42522271 8.48337625 0 0 Z " fill="#EDE4E2" transform="translate(23,8)"/>
<path d="M0 0 C0.66 0 1.32 0 2 0 C2.99 2.31 3.98 4.62 5 7 C2.36 7 -0.28 7 -3 7 C-2.01 4.69 -1.02 2.38 0 0 Z " fill="#CA2C17" transform="translate(23,17)"/>
</svg>
