<?xml version="1.0" encoding="UTF-8"?>
<svg version="1.1" xmlns="http://www.w3.org/2000/svg" width="48" height="48">
<path d="M0 0 C0.969375 -0.00386719 1.93875 -0.00773438 2.9375 -0.01171875 C3.948125 -0.00011719 4.95875 0.01148438 6 0.0234375 C7.010625 0.01183594 8.02125 0.00023437 9.0625 -0.01171875 C10.031875 -0.00785156 11.00125 -0.00398437 12 0 C12.886875 0.00338379 13.77375 0.00676758 14.6875 0.01025391 C17 0.3984375 17 0.3984375 18.79296875 1.67724609 C20.85130484 4.61237341 20.41925835 7.98251292 20 11.3984375 C19 13.8984375 19 13.8984375 18 15.3984375 C18.66 16.0584375 19.32 16.7184375 20 17.3984375 C20.54794521 24.30254709 20.54794521 24.30254709 19 27.3984375 C15.63044301 29.08321599 12.7359887 28.69494454 9 28.3984375 C8.34 27.7384375 7.68 27.0784375 7 26.3984375 C6.96261719 27.30207031 6.92523438 28.20570312 6.88671875 29.13671875 C6.82097656 30.31621094 6.75523438 31.49570312 6.6875 32.7109375 C6.62949219 33.88269531 6.57148438 35.05445313 6.51171875 36.26171875 C6 39.3984375 6 39.3984375 4.70703125 41.29296875 C1.64153171 43.27817783 -1.48947548 42.91038899 -5 42.3984375 C-7 41.3984375 -7 41.3984375 -8 39.3984375 C-8.36302306 34.82434689 -8.62404613 31.33450669 -6 27.3984375 C-6.66 26.7384375 -7.32 26.0784375 -8 25.3984375 C-8.52941176 17.19255515 -8.52941176 17.19255515 -6 13.3984375 C-6.66 12.7384375 -7.32 12.0784375 -8 11.3984375 C-8.57468133 4.15745276 -8.57468133 4.15745276 -6.78979492 1.80004883 C-4.42641755 -0.05074227 -2.98075606 0.0113728 0 0 Z M6 14.3984375 C6.33 15.3884375 6.66 16.3784375 7 17.3984375 C7.66 16.4084375 8.32 15.4184375 9 14.3984375 C8.01 14.3984375 7.02 14.3984375 6 14.3984375 Z " fill="#7B4CFF" transform="translate(19,2.6015625)"/>
<path d="M0 0 C0.969375 -0.00386719 1.93875 -0.00773438 2.9375 -0.01171875 C3.948125 -0.00011719 4.95875 0.01148438 6 0.0234375 C7.010625 0.01183594 8.02125 0.00023437 9.0625 -0.01171875 C10.031875 -0.00785156 11.00125 -0.00398437 12 0 C12.886875 0.00338379 13.77375 0.00676758 14.6875 0.01025391 C17.44344765 0.47287603 18.32925607 1.1988153 20 3.3984375 C20.3984375 5.3359375 20.3984375 5.3359375 20.375 7.3984375 C20.38273437 8.0790625 20.39046875 8.7596875 20.3984375 9.4609375 C19.87253629 12.01826101 19.04486244 12.7925977 17 14.3984375 C14.6875 14.78662109 14.6875 14.78662109 12 14.796875 C11.030625 14.80074219 10.06125 14.80460937 9.0625 14.80859375 C8.051875 14.79699219 7.04125 14.78539062 6 14.7734375 C4.989375 14.78503906 3.97875 14.79664063 2.9375 14.80859375 C1.968125 14.80472656 0.99875 14.80085938 0 14.796875 C-0.886875 14.79349121 -1.77375 14.79010742 -2.6875 14.78662109 C-5.44344765 14.32399897 -6.32925607 13.5980597 -8 11.3984375 C-8.3984375 9.4609375 -8.3984375 9.4609375 -8.375 7.3984375 C-8.38273438 6.7178125 -8.39046875 6.0371875 -8.3984375 5.3359375 C-7.43776183 0.66441659 -4.31478352 0.01646266 0 0 Z " fill="#FF6F42" transform="translate(19,2.6015625)"/>
<path d="M0 0 C0 4.62 0 9.24 0 14 C-10.46375858 14.36930913 -10.46375858 14.36930913 -12.83203125 12.73828125 C-14.22906855 10.65907858 -14.40329052 9.48956538 -14.375 7 C-14.38273438 6.319375 -14.39046875 5.63875 -14.3984375 4.9375 C-12.93868297 -2.16091419 -5.59376022 -0.19742683 0 0 Z " fill="#E54918" transform="translate(25,3)"/>
<path d="M0 0 C0.99386719 0.02707031 1.98773438 0.05414062 3.01171875 0.08203125 C4.15060547 0.13423828 4.15060547 0.13423828 5.3125 0.1875 C5.39364106 1.95757714 5.45175505 3.72872098 5.5 5.5 C5.53480469 6.48613281 5.56960937 7.47226562 5.60546875 8.48828125 C5.3125 11.1875 5.3125 11.1875 4.05078125 13.01953125 C0.98499051 15.07946705 -2.14026338 14.70480534 -5.6875 14.1875 C-7.6875 13.1875 -7.6875 13.1875 -8.6875 11.1875 C-9.20480534 7.64026338 -9.57946705 4.51500949 -7.51953125 1.44921875 C-4.95058469 -0.32001311 -3.08446435 -0.10886345 0 0 Z " fill="#65BA69" transform="translate(19.6875,30.8125)"/>
<path d="M0 0 C2 1 2 1 3 3 C3.51981506 6.56444611 3.63102777 9.73794446 2 13 C-1.26205554 14.63102777 -4.43555389 14.51981506 -8 14 C-10 13 -10 13 -11 11 C-11.51981506 7.43555389 -11.63102777 4.26205554 -10 1 C-6.73794446 -0.63102777 -3.56444611 -0.51981506 0 0 Z " fill="#28B5F5" transform="translate(36,17)"/>
</svg>
