<?xml version="1.0" encoding="UTF-8"?>
<svg version="1.1" xmlns="http://www.w3.org/2000/svg" width="48" height="48">
<path d="M0 0 C0.042721 1.66611905 0.04063832 3.33382885 0 5 C-0.33 5.33 -0.66 5.66 -1 6 C-1.1245486 7.64230364 -1.17568524 9.29052276 -1.1875 10.9375 C-1.20876953 12.28134766 -1.20876953 12.28134766 -1.23046875 13.65234375 C-1.23194769 16.19114534 -1.23194769 16.19114534 1 18 C1 19.32 1 20.64 1 22 C0.34 22 -0.32 22 -1 22 C-0.98839844 22.84304687 -0.97679688 23.68609375 -0.96484375 24.5546875 C-0.95582031 25.65039062 -0.94679688 26.74609375 -0.9375 27.875 C-0.92589844 28.96554688 -0.91429688 30.05609375 -0.90234375 31.1796875 C-1 34 -1 34 -2 36 C-2 37.32 -2 38.64 -2 40 C-3.31355469 39.91621094 -4.62710938 39.83242188 -5.98046875 39.74609375 C-7.71612585 39.64289252 -9.4518041 39.54004658 -11.1875 39.4375 C-12.05181641 39.38142578 -12.91613281 39.32535156 -13.80664062 39.26757812 C-18.04749079 39.0238511 -21.85797819 38.84229204 -26 40 C-27.0712828 33.97403427 -27.09945415 28.11090483 -27 22 C-27.66 22 -28.32 22 -29 22 C-28.125 17.125 -28.125 17.125 -27 16 C-26.90176063 14.33570949 -26.87026369 12.66718069 -26.875 11 C-26.87242188 10.0925 -26.86984375 9.185 -26.8671875 8.25 C-26.74826221 6.03033389 -26.74826221 6.03033389 -28 5 C-28.04063832 3.33382885 -28.042721 1.66611905 -28 0 C-18.57755934 -2.89921251 -9.42244066 -2.89921251 0 0 Z " fill="#59CED8" transform="translate(38,5)"/>
<path d="M0 0 C2.625 0.375 2.625 0.375 5 1 C5.625 3.375 5.625 3.375 6 6 C5.34 6.66 4.68 7.32 4 8 C1.375 7.625 1.375 7.625 -1 7 C-1.625 4.625 -1.625 4.625 -2 2 C-1.34 1.34 -0.68 0.68 0 0 Z " fill="#DFE8E9" transform="translate(17,6)"/>
<path d="M0 0 C2.625 0.375 2.625 0.375 5 1 C5.625 3.375 5.625 3.375 6 6 C5.34 6.66 4.68 7.32 4 8 C1.375 7.625 1.375 7.625 -1 7 C-1.625 4.625 -1.625 4.625 -2 2 C-1.34 1.34 -0.68 0.68 0 0 Z " fill="#E0E8E9" transform="translate(27,6)"/>
<path d="M0 0 C0 0.99 0 1.98 0 3 C-0.66 3 -1.32 3 -2 3 C-2 3.99 -2 4.98 -2 6 C-3.32 6 -4.64 6 -6 6 C-6 5.01 -6 4.02 -6 3 C-6.66 3 -7.32 3 -8 3 C-8 2.01 -8 1.02 -8 0 C-2.25 -1.125 -2.25 -1.125 0 0 Z " fill="#EBD7AC" transform="translate(28,15)"/>
</svg>
