<?xml version="1.0" encoding="UTF-8"?>
<svg version="1.1" xmlns="http://www.w3.org/2000/svg" width="48" height="48">
<path d="M0 0 C1.12792969 0.6290625 2.25585938 1.258125 3.41796875 1.90625 C4.55878906 2.5353125 5.69960938 3.164375 6.875 3.8125 C9.60546875 5.40625 9.60546875 5.40625 10.60546875 6.40625 C11.02366423 9.97768182 11.0702046 13.56398575 11.16796875 17.15625 C11.23048828 18.15914062 11.29300781 19.16203125 11.35742188 20.1953125 C11.42168691 23.13202986 11.37055376 25.56717345 10.60546875 28.40625 C8.25364422 30.84099142 5.68816584 32.08003832 2.60546875 33.40625 C1.83976562 33.86773437 1.0740625 34.32921875 0.28515625 34.8046875 C-0.31039063 35.12695312 -0.9059375 35.44921875 -1.51953125 35.78125 C-2.12023437 36.11898437 -2.7209375 36.45671875 -3.33984375 36.8046875 C-7.56836717 38.04269626 -10.92577991 36.62633118 -14.7890625 34.8125 C-15.91699219 34.1834375 -17.04492188 33.554375 -18.20703125 32.90625 C-19.34785156 32.2771875 -20.48867188 31.648125 -21.6640625 31 C-24.39453125 29.40625 -24.39453125 29.40625 -25.39453125 28.40625 C-25.81272673 24.83481818 -25.8592671 21.24851425 -25.95703125 17.65625 C-26.05081055 16.15191406 -26.05081055 16.15191406 -26.14648438 14.6171875 C-26.21074941 11.68047014 -26.15961626 9.24532655 -25.39453125 6.40625 C-23.04270672 3.97150858 -20.47722834 2.73246168 -17.39453125 1.40625 C-16.62882812 0.94476563 -15.863125 0.48328125 -15.07421875 0.0078125 C-14.47867187 -0.31445312 -13.883125 -0.63671875 -13.26953125 -0.96875 C-12.66882812 -1.30648438 -12.068125 -1.64421875 -11.44921875 -1.9921875 C-7.22069533 -3.23019626 -3.86328259 -1.81383118 0 0 Z " fill="#D61A5F" transform="translate(31.39453125,6.59375)"/>
<path d="M0 0 C0.23315639 3.39466737 0.37464625 6.78727962 0.5 10.1875 C0.60054687 11.62706055 0.60054687 11.62706055 0.703125 13.09570312 C0.78161679 15.9312189 0.74300146 18.25901852 0 21 C-2.35178431 23.41912615 -4.92735516 24.67437953 -8 26 C-8.81210937 26.44988281 -9.62421875 26.89976563 -10.4609375 27.36328125 C-15.77777778 30 -15.77777778 30 -18 30 C-18 23.07 -18 16.14 -18 9 C-15.40125 7.515 -12.8025 6.03 -10.125 4.5 C-9.30789551 4.03013672 -8.49079102 3.56027344 -7.64892578 3.07617188 C-7.0042334 2.71072266 -6.35954102 2.34527344 -5.6953125 1.96875 C-5.03547363 1.59169922 -4.37563477 1.21464844 -3.69580078 0.82617188 C-2 0 -2 0 0 0 Z " fill="#222122" transform="translate(42,14)"/>
<path d="M0 0 C4.22824021 1.29666033 7.95050812 2.91225281 11.8125 5.0625 C12.76769531 5.58972656 13.72289062 6.11695313 14.70703125 6.66015625 C17 8 17 8 18 9 C18.07313567 11.53049402 18.09247527 14.03304837 18.0625 16.5625 C18.05798828 17.27341797 18.05347656 17.98433594 18.04882812 18.71679688 C18.03700864 20.47790013 18.01907263 22.23896036 18 24 C13.77175979 22.70333967 10.04949188 21.08774719 6.1875 18.9375 C5.23230469 18.41027344 4.27710938 17.88304688 3.29296875 17.33984375 C1 16 1 16 0 15 C-0.07313567 12.46950598 -0.09247527 9.96695163 -0.0625 7.4375 C-0.05798828 6.72658203 -0.05347656 6.01566406 -0.04882812 5.28320312 C-0.03700864 3.52209987 -0.01907263 1.76103964 0 0 Z " fill="#FF9300" transform="translate(6,20)"/>
<path d="M0 0 C2.60797351 1.26347163 5.21123407 2.53535224 7.8125 3.8125 C8.55048828 4.16892578 9.28847656 4.52535156 10.04882812 4.89257812 C10.76103516 5.24384766 11.47324219 5.59511719 12.20703125 5.95703125 C12.8616333 6.27647705 13.51623535 6.59592285 14.19067383 6.92504883 C16.11617064 8.06901894 17.48835511 9.35744135 19 11 C18.360625 11.20625 17.72125 11.4125 17.0625 11.625 C14.64576118 12.88634445 14.64576118 12.88634445 14.37109375 16.0859375 C14.24863281 17.04757813 14.12617188 18.00921875 14 19 C8 16 2 13 -4 10 C-4.25 6.6875 -4.25 6.6875 -4 3 C-1.984375 1.26953125 -1.984375 1.26953125 0 0 Z " fill="#FE5621" transform="translate(10,10)"/>
<path d="M0 0 C2.60797351 1.26347163 5.21123407 2.53535224 7.8125 3.8125 C8.55048828 4.16892578 9.28847656 4.52535156 10.04882812 4.89257812 C10.76103516 5.24384766 11.47324219 5.59511719 12.20703125 5.95703125 C12.8616333 6.27647705 13.51623535 6.59592285 14.19067383 6.92504883 C16.11617064 8.06901894 17.48835511 9.35744135 19 11 C16.5546875 12.2734375 16.5546875 12.2734375 13 13 C9.8035773 11.96142413 7.01595215 10.32037194 4.125 8.625 C3.34125 8.18671875 2.5575 7.7484375 1.75 7.296875 C-0.17761512 6.21552994 -2.09270212 5.11666857 -4 4 C-2.68 2.68 -1.36 1.36 0 0 Z " fill="#FD1742" transform="translate(10,10)"/>
<path d="M0 0 C4.20305135 1.13595982 7.95764114 2.8873384 11.8125 4.875 C12.76769531 5.36742187 13.72289062 5.85984375 14.70703125 6.3671875 C17 8 17 8 17.82421875 10.1953125 C17.88222656 10.79085937 17.94023437 11.38640625 18 12 C13.79694865 10.86404018 10.04235886 9.1126616 6.1875 7.125 C4.75470703 6.38636719 4.75470703 6.38636719 3.29296875 5.6328125 C1 4 1 4 0.17578125 1.8046875 C0.11777344 1.20914063 0.05976562 0.61359375 0 0 Z " fill="#FBC02A" transform="translate(6,32)"/>
<path d="M0 0 C4.92455379 0.54551203 8.48400142 2.0580625 12.8125 4.4375 C13.95332031 5.05496094 15.09414063 5.67242188 16.26953125 6.30859375 C19 8 19 8 20 10 C17.65942846 10.82193222 16.4410801 11.16347293 14.07714844 10.28735352 C13.4277832 9.90506592 12.77841797 9.52277832 12.109375 9.12890625 C11.40039062 8.71962891 10.69140625 8.31035156 9.9609375 7.88867188 C9.23132812 7.45103516 8.50171875 7.01339844 7.75 6.5625 C6.63238281 5.9118457 6.63238281 5.9118457 5.4921875 5.24804688 C3.65500263 4.1763557 1.82662026 3.08960023 0 2 C0 1.34 0 0.68 0 0 Z " fill="#8E22A7" transform="translate(22,4)"/>
<path d="M0 0 C4.20305135 1.13595982 7.95764114 2.8873384 11.8125 4.875 C12.76769531 5.36742187 13.72289062 5.85984375 14.70703125 6.3671875 C17.34388562 8.24487937 17.42771157 8.95484584 18 12 C12 9 6 6 0 3 C0 2.01 0 1.02 0 0 Z " fill="#FEB201" transform="translate(6,29)"/>
<path d="M0 0 C4.20305135 1.13595982 7.95764114 2.8873384 11.8125 4.875 C12.76769531 5.36742187 13.72289062 5.85984375 14.70703125 6.3671875 C17.34388562 8.24487937 17.42771157 8.95484584 18 12 C12 9 6 6 0 3 C0 2.01 0 1.02 0 0 Z " fill="#FF6F01" transform="translate(6,20)"/>
<path d="M0 0 C4.092527 1.53854398 7.89455918 3.44143884 11.75 5.5 C12.89984375 6.1084375 14.0496875 6.716875 15.234375 7.34375 C18 9 18 9 19 11 C16 12 16 12 12.75 10.453125 C11.49388372 9.72926138 10.24405856 8.99439569 9 8.25 C8.3709375 7.8890625 7.741875 7.528125 7.09375 7.15625 C4.05678962 5.38040029 1.30817199 3.68155276 -1 1 C-0.67 0.67 -0.34 0.34 0 0 Z " fill="#A91459" transform="translate(20,5)"/>
<path d="M0 0 C2.60797351 1.26347163 5.21123407 2.53535224 7.8125 3.8125 C8.55048828 4.16892578 9.28847656 4.52535156 10.04882812 4.89257812 C10.76103516 5.24384766 11.47324219 5.59511719 12.20703125 5.95703125 C12.8616333 6.27647705 13.51623535 6.59592285 14.19067383 6.92504883 C16.11617064 8.06901894 17.48835511 9.35744135 19 11 C16 12 16 12 14.09887695 11.28735352 C13.40238037 10.90506592 12.70588379 10.52277832 11.98828125 10.12890625 C10.85229492 9.51499023 10.85229492 9.51499023 9.69335938 8.88867188 C8.90767578 8.45103516 8.12199219 8.01339844 7.3125 7.5625 C6.51521484 7.12873047 5.71792969 6.69496094 4.89648438 6.24804688 C2.92589446 5.17425237 0.96090073 4.09135818 -1 3 C-0.67 2.01 -0.34 1.02 0 0 Z " fill="#F30156" transform="translate(10,10)"/>
<path d="M0 0 C4.24292532 1.60630825 8.27025107 3.5768162 12.3125 5.625 C12.95767578 5.94984375 13.60285156 6.2746875 14.26757812 6.609375 C15.84597541 7.40441956 17.42311694 8.20195634 19 9 C19 9.66 19 10.32 19 11 C14.13127946 10.40440894 10.40671159 8.27522585 6.1875 5.9375 C5.49462891 5.56044922 4.80175781 5.18339844 4.08789062 4.79492188 C2.38871015 3.86916148 0.69390575 2.93537688 -1 2 C-0.67 1.34 -0.34 0.68 0 0 Z " fill="#E71C61" transform="translate(12,9)"/>
<path d="M0 0 C2.5563415 1.17301418 4.97803904 2.39880037 7.4375 3.75 C8.4594043 4.29140625 8.4594043 4.29140625 9.50195312 4.84375 C12.79541766 6.62434983 15.42299649 8.24373095 18 11 C17.01 11.495 17.01 11.495 16 12 C14.22827148 11.3190918 14.22827148 11.3190918 12.12109375 10.19921875 C10.98704102 9.59883789 10.98704102 9.59883789 9.83007812 8.98632812 C9.04052734 8.55771484 8.25097656 8.12910156 7.4375 7.6875 C6.64408203 7.27048828 5.85066406 6.85347656 5.03320312 6.42382812 C-0.86793914 3.26412172 -0.86793914 3.26412172 -2 1 C-1.34 0.67 -0.68 0.34 0 0 Z " fill="#C31160" transform="translate(18,6)"/>
<path d="M0 0 C4.14032846 1.54385129 7.93553053 3.51028938 11.8125 5.625 C12.40998047 5.94984375 13.00746094 6.2746875 13.62304688 6.609375 C15.08337135 7.40379151 16.54187491 8.20155376 18 9 C17.67 9.99 17.34 10.98 17 12 C11.39 9.03 5.78 6.06 0 3 C0 2.01 0 1.02 0 0 Z " fill="#F44235" transform="translate(6,14)"/>
<path d="M0 0 C0 0.99 0 1.98 0 3 C-3.465 4.485 -3.465 4.485 -7 6 C-6.75 4.125 -6.75 4.125 -6 2 C-3.85331506 0.61504198 -2.56128588 0 0 0 Z " fill="#E6E6E6" transform="translate(35,31)"/>
</svg>
