<?xml version="1.0" encoding="UTF-8"?>
<svg version="1.1" xmlns="http://www.w3.org/2000/svg" width="48" height="48">
<path d="M0 0 C7.2081448 0.36651584 7.2081448 0.36651584 10.8125 3.25 C12.80330565 5.7527271 14.37950906 8.25221102 16 11 C16.7425 11.680625 17.485 12.36125 18.25 13.0625 C18.8275 13.701875 19.405 14.34125 20 15 C19.75 17.25 19.75 17.25 19 19 C17.68 18.34 16.36 17.68 15 17 C15 18.98 15 20.96 15 23 C16.65 23 18.3 23 20 23 C20 23.66 20 24.32 20 25 C19.09290283 24.99214478 19.09290283 24.99214478 18.16748047 24.98413086 C15.40333106 24.96322642 12.63919835 24.95029721 9.875 24.9375 C8.92367187 24.92912109 7.97234375 24.92074219 6.9921875 24.91210938 C2.19311754 24.89544594 -2.27272774 25.07743098 -7 26 C-10.85053204 26.22927862 -14.3006171 26.23312763 -18 25 C-18.33 24.34 -18.66 23.68 -19 23 C-19.99 23.66 -20.98 24.32 -22 25 C-22.99 24.01 -23.98 23.02 -25 22 C-25.33 22.99 -25.66 23.98 -26 25 C-26.66 25 -27.32 25 -28 25 C-28 21.7 -28 18.4 -28 15 C-26.68 15 -25.36 15 -24 15 C-23.34 16.32 -22.68 17.64 -22 19 C-21.5875 18.34 -21.175 17.68 -20.75 17 C-20.1725 16.34 -19.595 15.68 -19 15 C-17.68 15 -16.36 15 -15 15 C-15 15.99 -15 16.98 -15 18 C-14.01 18 -13.02 18 -12 18 C-12 19.65 -12 21.3 -12 23 C-11.01 23 -10.02 23 -9 23 C-9 21.35 -9 19.7 -9 18 C-8.01 18 -7.02 18 -6 18 C-6 17.01 -6 16.02 -6 15 C-5.07767578 15.01740234 -5.07767578 15.01740234 -4.13671875 15.03515625 C-2.92435547 15.04869141 -2.92435547 15.04869141 -1.6875 15.0625 C-0.88699219 15.07410156 -0.08648438 15.08570313 0.73828125 15.09765625 C3.16861334 15.09657855 3.16861334 15.09657855 6 14 C5.01 13.67 4.02 13.34 3 13 C2.3046875 11.07421875 2.3046875 11.07421875 1.875 8.6875 C1.65457031 7.51767578 1.65457031 7.51767578 1.4296875 6.32421875 C1.28789062 5.55722656 1.14609375 4.79023438 1 4 C0.6768501 2.66416205 0.34692071 1.32986274 0 0 Z M6 3 C5.01 3.495 5.01 3.495 4 4 C4.28001138 8.01349645 4.75763789 9.72035142 7.4375 12.8125 C9.78119378 14.99083987 9.78119378 14.99083987 12 16 C14.11683841 15.10836423 14.11683841 15.10836423 16 14 C15.401875 13.278125 14.80375 12.55625 14.1875 11.8125 C12 9 12 9 10.4375 6.25 C9.13840819 3.69658149 9.13840819 3.69658149 6 3 Z M-3 17 C-3 17.66 -3 18.32 -3 19 C-1.35 19 0.3 19 2 19 C2 18.34 2 17.68 2 17 C0.35 17 -1.3 17 -3 17 Z M5 17 C5 18.65 5 20.3 5 22 C6.32 22 7.64 22 9 22 C9 20.35 9 18.7 9 17 C7.68 17 6.36 17 5 17 Z M-6 20 C-6 20.99 -6 21.98 -6 23 C-4.35 23 -2.7 23 -1 23 C-1 22.34 -1 21.68 -1 21 C-2.65 20.67 -4.3 20.34 -6 20 Z " fill="#F47C16" transform="translate(28,11)"/>
<path d="M0 0 C1.32 0 2.64 0 4 0 C4.66 1.32 5.32 2.64 6 4 C6.4125 3.34 6.825 2.68 7.25 2 C7.8275 1.34 8.405 0.68 9 0 C10.32 0 11.64 0 13 0 C13 0.99 13 1.98 13 3 C13.99 3 14.98 3 16 3 C16 4.65 16 6.3 16 8 C16.99 8 17.98 8 19 8 C19 6.35 19 4.7 19 3 C19.99 3 20.98 3 22 3 C22.04241723 5.33294775 22.04092937 7.66702567 22 10 C20.11940967 11.88059033 17.50109962 11.12361218 15.0078125 11.1328125 C13 11 13 11 10 10 C9.67 9.34 9.34 8.68 9 8 C8.01 8.66 7.02 9.32 6 10 C5.01 9.01 4.02 8.02 3 7 C2.67 7.99 2.34 8.98 2 10 C1.34 10 0.68 10 0 10 C0 6.7 0 3.4 0 0 Z " fill="#00786A" transform="translate(0,26)"/>
<path d="M0 0 C7.2081448 0.36651584 7.2081448 0.36651584 10.8125 3.25 C12.80330565 5.7527271 14.37950906 8.25221102 16 11 C16.7425 11.680625 17.485 12.36125 18.25 13.0625 C18.8275 13.701875 19.405 14.34125 20 15 C19.75 17.25 19.75 17.25 19 19 C17.0625 18.25 17.0625 18.25 15 17 C14.64783717 15.67151582 14.31757868 14.33717339 14 13 C12.93627037 10.83329739 12.93627037 10.83329739 11.625 8.75 C11.20476563 8.04359375 10.78453125 7.3371875 10.3515625 6.609375 C9.90554687 6.07828125 9.45953125 5.5471875 9 5 C8.01 5 7.02 5 6 5 C5.67 5.33 5.34 5.66 5 6 C5 7.32 5 8.64 5 10 C5.99 10.33 6.98 10.66 8 11 C9.1875 13.0625 9.1875 13.0625 10 15 C7.69 14.34 5.38 13.68 3 13 C2.86722656 12.39671875 2.73445313 11.7934375 2.59765625 11.171875 C2.42105469 10.37265625 2.24445312 9.5734375 2.0625 8.75 C1.88847656 7.96109375 1.71445312 7.1721875 1.53515625 6.359375 C1.052444 4.23121297 0.53836822 2.11467158 0 0 Z " fill="#007366" transform="translate(28,11)"/>
</svg>
