<?xml version="1.0" encoding="UTF-8"?>
<svg version="1.1" xmlns="http://www.w3.org/2000/svg" width="64" height="64">
<path d="M0 0 C0.94294922 -0.020625 1.88589844 -0.04125 2.85742188 -0.0625 C11.33915685 -0.10913497 19.25424012 1.26769891 26.3125 6.25 C27.034375 6.745 27.75625 7.24 28.5 7.75 C30.90419884 9.7396818 32.19366021 11.43470374 32.6484375 14.5546875 C32.70936002 18.56338951 32.72215193 21.4485071 30.875 25.0625 C21.76098059 32.84276047 12.09652807 34.60259294 0.4375 34.5625 C-0.49191406 34.57861328 -1.42132812 34.59472656 -2.37890625 34.61132812 C-10.78283812 34.61718861 -18.69999499 33.18235647 -25.6875 28.25 C-26.409375 27.755 -27.13125 27.26 -27.875 26.75 C-30.27919884 24.7603182 -31.56866021 23.06529626 -32.0234375 19.9453125 C-32.03632812 19.09710938 -32.04921875 18.24890625 -32.0625 17.375 C-32.09085938 16.53195313 -32.11921875 15.68890625 -32.1484375 14.8203125 C-31.52034225 11.31788304 -30.17343001 9.77315691 -27.6875 7.25 C-24.84765625 5.484375 -24.84765625 5.484375 -21.75 4 C-20.73035156 3.49984375 -19.71070313 2.9996875 -18.66015625 2.484375 C-12.53207242 -0.06026953 -6.53899471 0.03503815 0 0 Z M-27.3125 11.6875 C-29.03645883 14.90033236 -29.28718099 16.65191408 -28.6875 20.25 C-25.28174176 26.21007693 -19.55480519 28.22209814 -13.375 30.4375 C-0.83788075 33.19991611 11.95322717 32.78158188 23.3125 26.25 C26.91958767 23.76291871 26.91958767 23.76291871 29.3125 20.25 C29.70948344 16.67714902 29.61155341 14.77334347 27.8125 11.625 C13.9688414 -1.52647567 -13.54398614 -1.09754859 -27.3125 11.6875 Z " fill="#2264FF" transform="translate(31.6875,14.75)"/>
<path d="M0 0 C1.32 0 2.64 0 4 0 C4 1.32 4 2.64 4 4 C9.65809694 4.85405237 14.96015151 5.01302904 20.6796875 4.7421875 C21.44539063 4.82726562 22.21109375 4.91234375 23 5 C25 8 25 8 24.875 11 C24 14 24 14 22.3125 15.875 C19.40422845 17.28983481 17.19384754 17.21776233 14 17 C13.67 18.32 13.34 19.64 13 21 C11.68 21 10.36 21 9 21 C9 19.68 9 18.36 9 17 C7.68 17 6.36 17 5 17 C5.33 14.03 5.66 11.06 6 8 C5.01 8 4.02 8 3 8 C2.34 10.97 1.68 13.94 1 17 C-0.32 17 -1.64 17 -3 17 C-3.33 16.34 -3.66 15.68 -4 15 C-4.66 15.66 -5.32 16.32 -6 17 C-9.625 17.125 -9.625 17.125 -13 17 C-13 18.32 -13 19.64 -13 21 C-14.65 21 -16.3 21 -18 21 C-17.01 15.72 -16.02 10.44 -15 5 C-4.375 4.75 -4.375 4.75 -1 7 C-0.67 4.69 -0.34 2.38 0 0 Z M-11 8 C-11.33 9.98 -11.66 11.96 -12 14 C-10.35 13.34 -8.7 12.68 -7 12 C-7 10.68 -7 9.36 -7 8 C-8.32 8 -9.64 8 -11 8 Z M16 8 C14.70366379 9.06645115 14.70366379 9.06645115 14.9375 11.5625 C14.958125 12.366875 14.97875 13.17125 15 14 C16.65 13.34 18.3 12.68 20 12 C19.67 10.68 19.34 9.36 19 8 C18.01 8 17.02 8 16 8 Z " fill="#9BBAFF" transform="translate(29,20)"/>
<path d="M0 0 C3 1 3 1 4.6875 3.8125 C9.27280085 10.13277955 16.9425668 12.14487844 24.42578125 13.41015625 C34.83311891 14.72048675 45.90898046 13.56515242 55 8 C57.79245093 5.54182045 57.79245093 5.54182045 60 3 C61.31175986 1.97186389 62.6369893 0.95915568 64 0 C64.36015986 3.15139874 64.15983345 4.72202878 62.5625 7.5 C53.9945522 15.85897347 43.6137966 17.35200755 32.125 17.3125 C31.19558594 17.32861328 30.26617188 17.34472656 29.30859375 17.36132812 C20.90466188 17.36718861 12.98750501 15.93235647 6 11 C5.278125 10.505 4.55625 10.01 3.8125 9.5 C2 8 2 8 0 5 C-0.125 2.3125 -0.125 2.3125 0 0 Z " fill="#B527FF" transform="translate(0,32)"/>
<path d="M0 0 C1.32 0 2.64 0 4 0 C3.67 1.98 3.34 3.96 3 6 C3.55171875 5.67257813 4.1034375 5.34515625 4.671875 5.0078125 C7.38780923 3.83212285 9.30551759 3.79751362 12.25 3.875 C13.14203125 3.89304687 14.0340625 3.91109375 14.953125 3.9296875 C15.96632813 3.96449219 15.96632813 3.96449219 17 4 C16.67 5.65 16.34 7.3 16 9 C14.68 9 13.36 9 12 9 C11.67 8.34 11.34 7.68 11 7 C10.34 7.66 9.68 8.32 9 9 C5.375 9.125 5.375 9.125 2 9 C2 10.32 2 11.64 2 13 C0.35 13 -1.3 13 -3 13 C-2.69240822 11.02006459 -2.3787932 9.04106401 -2.0625 7.0625 C-1.88847656 5.96035156 -1.71445313 4.85820313 -1.53515625 3.72265625 C-1 1 -1 1 0 0 Z " fill="#BFB4FF" transform="translate(14,28)"/>
<path d="M0 0 C0.350625 0.515625 0.70125 1.03125 1.0625 1.5625 C3.09468727 3.40146383 3.09468727 3.40146383 6.6875 2.6875 C7.780625 2.460625 8.87375 2.23375 10 2 C10 2.99 10 3.98 10 5 C6.5647952 7.29013653 5.014669 7.17842973 1 7 C0.67 8.32 0.34 9.64 0 11 C-1.32 11 -2.64 11 -4 11 C-4 9.68 -4 8.36 -4 7 C-5.32 7 -6.64 7 -8 7 C-7.67 5.35 -7.34 3.7 -7 2 C-4.69 1.34 -2.38 0.68 0 0 Z " fill="#BEB3FF" transform="translate(42,30)"/>
<path d="M0 0 C5.90165821 0.36132601 9.61236605 1.99440278 14 6 C16.1387261 9.20808915 16.47730962 10.27698497 16 14 C15.01 14.66 14.02 15.32 13 16 C12.7215625 14.4221875 12.7215625 14.4221875 12.4375 12.8125 C11.29863855 8.79394601 9.26891491 7.19325342 5.8203125 5 C3.60981983 3.78565209 1.39291243 2.79763748 -1 2 C-0.67 1.34 -0.34 0.68 0 0 Z " fill="#3759FF" transform="translate(48,18)"/>
<path d="M0 0 C0.515625 0.2475 1.03125 0.495 1.5625 0.75 C-0.47063193 2.9074825 -2.49615959 4.48881197 -5 6.0625 C-8.45685327 8.45458412 -9.56208864 10.56747907 -10.4375 14.75 C-11.4275 14.42 -12.4175 14.09 -13.4375 13.75 C-13.80890206 10.50023196 -13.59973632 9.01606756 -11.875 6.1875 C-8.60211009 2.91461009 -4.9006576 -0.50263155 0 0 Z " fill="#3A5AFF" transform="translate(13.4375,18.25)"/>
<path d="M0 0 C0.33 0.66 0.66 1.32 1 2 C-6.26 2 -13.52 2 -21 2 C-20.67 1.34 -20.34 0.68 -20 0 C-13.39871758 -1.37007748 -6.63296628 -1.2204658 0 0 Z " fill="#C223FF" transform="translate(42,47)"/>
<path d="M0 0 C1.32 0 2.64 0 4 0 C4 1.32 4 2.64 4 4 C6.97 4.495 6.97 4.495 10 5 C10 5.66 10 6.32 10 7 C6.37 7 2.74 7 -1 7 C-0.67 4.69 -0.34 2.38 0 0 Z " fill="#81C1FF" transform="translate(29,20)"/>
<path d="M0 0 C0.625 2.0625 0.625 2.0625 1 4 C-0.65 4 -2.3 4 -4 4 C-4.33 4.66 -4.66 5.32 -5 6 C-6.65 6 -8.3 6 -10 6 C-9.67 4.35 -9.34 2.7 -9 1 C-2.25 -1.125 -2.25 -1.125 0 0 Z " fill="#BBB4FF" transform="translate(44,31)"/>
<path d="M0 0 C3.63 0 7.26 0 11 0 C11.33 0.99 11.66 1.98 12 3 C8.04 3 4.08 3 0 3 C0 2.01 0 1.02 0 0 Z " fill="#8EBEFF" transform="translate(14,25)"/>
<path d="M0 0 C4.39158329 1.4638611 4.87947433 3.97831338 7 8 C5.68 8.33 4.36 8.66 3 9 C0.90250005 6.64031256 0.03094296 5.45383006 -0.1875 2.25 C-0.125625 1.5075 -0.06375 0.765 0 0 Z " fill="#893DFF" transform="translate(0,32)"/>
<path d="M0 0 C3.63 0 7.26 0 11 0 C11 0.33 11 0.66 11 1 C8.69 1 6.38 1 4 1 C4 2.32 4 3.64 4 5 C2.35 5 0.7 5 -1 5 C-0.67 3.35 -0.34 1.7 0 0 Z " fill="#D6ADFF" transform="translate(12,36)"/>
<path d="M0 0 C1.32 0 2.64 0 4 0 C4 2.31 4 4.62 4 7 C2.35 6.67 0.7 6.34 -1 6 C-1.042721 4.33388095 -1.04063832 2.66617115 -1 1 C-0.67 0.67 -0.34 0.34 0 0 Z " fill="#AEBAFF" transform="translate(14,28)"/>
<path d="M0 0 C3.3 0 6.6 0 10 0 C10 0.33 10 0.66 10 1 C8.02 1 6.04 1 4 1 C3.67 2.32 3.34 3.64 3 5 C1.68 5 0.36 5 -1 5 C-0.67 3.35 -0.34 1.7 0 0 Z " fill="#D5AEFF" transform="translate(39,36)"/>
<path d="M0 0 C4.875 0.875 4.875 0.875 6 2 C6.25 4.4375 6.25 4.4375 6 7 C5.01 7.66 4.02 8.32 3 9 C2.690625 7.88625 2.38125 6.7725 2.0625 5.625 C1.17673517 2.2054845 1.17673517 2.2054845 0 0 Z " fill="#6150FF" transform="translate(58,25)"/>
<path d="M0 0 C0.33 0 0.66 0 1 0 C1.20086443 3.71599191 1.1519437 4.77208445 -1 8 C-3.625 8.1875 -3.625 8.1875 -6 8 C-5.02471263 6.66382648 -4.04466681 5.3311249 -3.0625 4 C-2.24458984 2.88625 -2.24458984 2.88625 -1.41015625 1.75 C-0.94480469 1.1725 -0.47945312 0.595 0 0 Z " fill="#893AFF" transform="translate(63,32)"/>
<path d="M0 0 C0.99 0.99 1.98 1.98 3 3 C2.34 4.98 1.68 6.96 1 9 C0.01 8.67 -0.98 8.34 -2 8 C-2.20086443 4.28400809 -2.1519437 3.22791555 0 0 Z " fill="#5D4EFF" transform="translate(2,24)"/>
<path d="M0 0 C4.55384615 -0.36923077 4.55384615 -0.36923077 6.8125 1.5 C7.204375 1.995 7.59625 2.49 8 3 C5.6875 3.625 5.6875 3.625 3 4 C2.01 3.34 1.02 2.68 0 2 C0 1.34 0 0.68 0 0 Z " fill="#A92FFF" transform="translate(4,40)"/>
<path d="M0 0 C0.94875 0.04125 1.8975 0.0825 2.875 0.125 C1.555 1.445 0.235 2.765 -1.125 4.125 C-2.445 3.465 -3.765 2.805 -5.125 2.125 C-3.125 0.125 -3.125 0.125 0 0 Z " fill="#A131FF" transform="translate(58.125,39.875)"/>
<path d="M0 0 C2.97 0.495 2.97 0.495 6 1 C5.34 2.32 4.68 3.64 4 5 C3.01 4.67 2.02 4.34 1 4 C0.3125 1.9375 0.3125 1.9375 0 0 Z " fill="#A6B8FF" transform="translate(48,28)"/>
</svg>
