<?xml version="1.0" encoding="UTF-8"?>
<svg version="1.1" xmlns="http://www.w3.org/2000/svg" width="48" height="48">
<path d="M0 0 C11.88 0 23.76 0 36 0 C36 11.88 36 23.76 36 36 C24.12 36 12.24 36 0 36 C0 24.12 0 12.24 0 0 Z " fill="#1B77D2" transform="translate(6,6)"/>
<path d="M0 0 C2.01822917 0.06510417 4.03645833 0.13020833 6.0546875 0.1953125 C5.7246875 1.5153125 5.3946875 2.8353125 5.0546875 4.1953125 C3.4046875 3.8653125 1.7546875 3.5353125 0.0546875 3.1953125 C1.38800845 7.19527536 3.5504702 8.03313587 7.0546875 10.1953125 C6.79907427 12.5384338 6.46197978 14.87374653 6.0546875 17.1953125 C2.84017481 18.80256885 -0.38143786 18.25279435 -3.9453125 18.1953125 C-3.9453125 16.8753125 -3.9453125 15.5553125 -3.9453125 14.1953125 C-1.9653125 14.1953125 0.0146875 14.1953125 2.0546875 14.1953125 C2.0546875 13.5353125 2.0546875 12.8753125 2.0546875 12.1953125 C1.0646875 11.6178125 0.0746875 11.0403125 -0.9453125 10.4453125 C-3.9453125 8.1953125 -3.9453125 8.1953125 -4.4453125 5.0703125 C-3.89103794 1.88323377 -3.41690428 0.34306268 0 0 Z " fill="#ECF4FB" transform="translate(32.9453125,21.8046875)"/>
<path d="M0 0 C4.29 0 8.58 0 13 0 C13 0.99 13 1.98 13 3 C11.68 3 10.36 3 9 3 C9 7.95 9 12.9 9 18 C7.68 18 6.36 18 5 18 C5 13.05 5 8.1 5 3 C3.35 3 1.7 3 0 3 C0 2.01 0 1.02 0 0 Z " fill="#F5F9FD" transform="translate(14,22)"/>
</svg>
