<?xml version="1.0" encoding="UTF-8"?>
<svg version="1.1" xmlns="http://www.w3.org/2000/svg" width="48" height="48">
<path d="M0 0 C2.77245014 -0.13487595 5.53837088 -0.23400807 8.3125 -0.3125 C9.49102539 -0.3753418 9.49102539 -0.3753418 10.69335938 -0.43945312 C12.90027433 -0.48640876 14.84283979 -0.47422058 17 0 C19.06889398 2.42491781 20 3.80030995 20 7 C20.66 7 21.32 7 22 7 C22.309375 6.21625 22.61875 5.4325 22.9375 4.625 C24 2 24 2 25 0 C30.61 0 36.22 0 42 0 C40.54680072 4.35959783 39.41112743 7.31690047 37.13671875 11.1171875 C36.30043945 12.52291016 36.30043945 12.52291016 35.44726562 13.95703125 C34.86654297 14.91996094 34.28582031 15.88289063 33.6875 16.875 C32.83381836 18.30779297 32.83381836 18.30779297 31.96289062 19.76953125 C28.70621289 25.22100787 25.38492258 30.62730863 22 36 C17.88826212 34.62942071 17.40966119 32.7018538 15.3125 28.953125 C14.96872314 28.34490906 14.62494629 27.73669312 14.27075195 27.11004639 C13.17180347 25.16143983 12.08570959 23.20600825 11 21.25 C10.26908738 19.94743472 9.53732593 18.64534536 8.8046875 17.34375 C7.45159855 14.93944456 6.1046396 12.53210931 4.76171875 10.12207031 C3.63745545 8.1296813 2.47655695 6.15723306 1.26953125 4.21386719 C0 2 0 2 0 0 Z " fill="#80C683" transform="translate(3,8)"/>
<path d="M0 0 C3.05071175 -0.287803 5.96060262 -0.4472872 9 0 C11.10361696 2.4223468 12 3.78245634 12 7 C12.66 7 13.32 7 14 7 C14.309375 6.21625 14.61875 5.4325 14.9375 4.625 C16 2 16 2 17 0 C19.97 0 22.94 0 26 0 C22 7 18 14 14 21 C13.34 21 12.68 21 12 21 C10.67138672 19.17993164 10.67138672 19.17993164 9.1796875 16.66015625 C8.37724609 15.3134082 8.37724609 15.3134082 7.55859375 13.93945312 C7.00300781 12.99005859 6.44742187 12.04066406 5.875 11.0625 C5.31167969 10.11697266 4.74835937 9.17144531 4.16796875 8.19726562 C0 1.15814165 0 1.15814165 0 0 Z " fill="#486065" transform="translate(11,8)"/>
</svg>
